# xmcd
#
# Track frame offsets:
#	150
#	15027
#	30436
#	47170
#	66062
#	83124
#	98417
#	115945
#	132421
#	149518
#	165695
#	184630
#	198275
#	216117
#	233523
#	252184
#	267034
#	283139
#	300416
#
# Disc length: 4231 seconds
# Revision: 0
# Processed by: cddbd v1.5.2PL0 Copyright (c) Steve Scherf et al.
# Submitted via: dBpowerAMP V12.0
#
DISCID=f5108513
DTITLE=Various Artist - Country Radio June 2008
DYEAR=2008
DGENRE=Country
TTITLE0=Ashley Gearing - Out Of The Window
TTITLE1=Brooks and Dunn - Put A Girl In It
TTITLE2=Mica Roberts Feat Toby Keith - Things A Mama Don't Know
TTITLE3=Cross Canadian Ragweed - Cry Lonely
TTITLE4=Jeremy McComb - This Town Needs A Bar
TTITLE5=Jimmy Wayne - Do You Believe Me Now
TTITLE6=Tracy Lawrence - Til I Was A Daddy Too
TTITLE7=Jason Aldean - Relentless
TTITLE8=Blake Shelton - Home
TTITLE9=Heidi Newfield - Johnny and June
TTITLE10=Sugarland Feat Litttle Big Town and Jake Owen - Life In A Northern Town (Live)
TTITLE11=Darius Rucker - Don't Think I Don't Think About It
TTITLE12=David Nail - I'm About To Come Alive
TTITLE13=Rissi Palmer - No Air
TTITLE14=Jamey Johnson - In Color
TTITLE15=Chris Cagle - No Love Songs
TTITLE16=Carter's Chord - Different Breed
TTITLE17=John Michael Montgomery - If You Ever Went Away
TTITLE18=Julian Austin - Back To Me
EXTD=
EXTT0=
EXTT1=
EXTT2=
EXTT3=
EXTT4=
EXTT5=
EXTT6=
EXTT7=
EXTT8=
EXTT9=
EXTT10=
EXTT11=
EXTT12=
EXTT13=
EXTT14=
EXTT15=
EXTT16=
EXTT17=
EXTT18=
PLAYORDER=
